<?xml version="1.0" encoding="UTF-8"?>
<svg version="1.1" xmlns="http://www.w3.org/2000/svg" width="857" height="650">
<path d="M0 0 C282.81 0 565.62 0 857 0 C857 214.5 857 429 857 650 C574.19 650 291.38 650 0 650 C0 435.5 0 221 0 0 Z " fill="#FDFEFE" transform="translate(0,0)"/>
<path d="M0 0 C0.75361816 0.2882666 1.50723633 0.5765332 2.28369141 0.87353516 C29.65805307 11.37662641 53.91861532 25.01183814 75.6171875 44.83984375 C77.79388142 46.81314168 80.01145605 48.72266322 82.25 50.625 C85.45887325 53.3986617 88.15280007 56.38414534 90.7734375 59.71484375 C91.17820312 60.13894531 91.58296875 60.56304687 92 61 C94.09431517 61.23471676 94.09431517 61.23471676 95.41015625 59.6015625 C95.95542969 58.94929688 96.50070312 58.29703125 97.0625 57.625 C99.91474522 54.27047261 102.80398897 50.9603116 105.75 47.6875 C106.48734375 46.86636719 107.2246875 46.04523438 107.984375 45.19921875 C109.61704027 43.41784172 111.27285075 41.68888962 113 40 C117.72152502 41.42422601 120.50966105 44.1934777 123.8125 47.6875 C124.88224986 48.78827358 125.9538599 49.88724253 127.02734375 50.984375 C127.54151855 51.51095703 128.05569336 52.03753906 128.58544922 52.58007812 C130.85035356 54.85358238 133.26883828 56.92161769 135.7109375 59 C141.26827903 63.8555612 146.60724837 68.96323057 152 74 C150.70809268 76.79058063 149.30263565 79.01067907 147.27734375 81.3203125 C146.47550659 82.23997803 146.47550659 82.23997803 145.6574707 83.17822266 C145.08988037 83.82065918 144.52229004 84.4630957 143.9375 85.125 C143.06774536 86.12152588 143.06774536 86.12152588 142.18041992 87.13818359 C139.55780666 90.13452377 136.91641266 93.10941622 134.2109375 96.03125 C133.41945313 96.8871875 132.62796875 97.743125 131.8125 98.625 C131.11769531 99.35976562 130.42289063 100.09453125 129.70703125 100.8515625 C127.70225165 103.37474049 126.5982393 104.80189368 126 108 C126.93243505 111.1105356 128.41119551 113.92187015 129.875 116.8125 C137.34917861 132.45728166 142.95209311 148.91923853 146 166 C146.37680908 167.90386475 146.37680908 167.90386475 146.76123047 169.84619141 C148.83653393 180.72224892 149.43992842 191.25386885 149.33618164 202.31347656 C149.31251452 204.99835296 149.31566328 207.68223224 149.32226562 210.3671875 C149.29872783 225.67270642 148.11327566 240.67826589 144.6875 255.625 C144.46876221 256.59735596 144.25002441 257.56971191 144.0246582 258.5715332 C142.11209995 266.87391498 139.88404737 274.9828426 137 283 C136.72849121 283.75812988 136.45698242 284.51625977 136.17724609 285.29736328 C121.13929856 326.54169535 92.67731421 362.5851958 57 388 C56.09096924 388.66008057 56.09096924 388.66008057 55.16357422 389.33349609 C30.77936514 406.9439382 1.61682837 419.71589652 -28 425 C-29.07604492 425.19319824 -30.15208984 425.38639648 -31.26074219 425.58544922 C-60.55095499 430.61777891 -89.82443534 430.95538103 -119 425 C-119.7945459 424.84515137 -120.5890918 424.69030273 -121.40771484 424.53076172 C-160.10049291 416.87696575 -196.86421118 397.93856997 -225.27734375 370.60546875 C-227.5439733 368.43639858 -229.84893159 366.39076976 -232.25 364.375 C-243.36730754 354.6675797 -264.69951725 333.22456298 -267 318 C-266.44946289 316.0534668 -266.44946289 316.0534668 -265.47265625 313.94921875 C-265.10148682 313.12736084 -264.73031738 312.30550293 -264.34790039 311.45874023 C-263.92371826 310.54423096 -263.49953613 309.62972168 -263.0625 308.6875 C-258.34782215 298.18596958 -253.9083308 287.5956787 -249.5625 276.9375 C-248.18548082 273.56616712 -246.80758453 270.19519292 -245.4296875 266.82421875 C-245.07510468 265.9563121 -244.72052185 265.08840546 -244.35519409 264.19419861 C-240.4030151 254.52688206 -236.41060601 244.8762453 -232.41833496 235.22543335 C-225.22587279 217.83829982 -218.06405471 200.43976553 -211 183 C-210.34 183 -209.68 183 -209 183 C-205.04 192.9 -201.08 202.8 -197 213 C-178.85 213.33 -160.7 213.66 -142 214 C-142 232.48 -142 250.96 -142 270 C-144.59382435 268.70308783 -144.72267992 267.6933002 -145.78759766 265.03100586 C-146.13250244 264.17841187 -146.47740723 263.32581787 -146.83276367 262.4473877 C-147.18959229 261.54564819 -147.5464209 260.64390869 -147.9140625 259.71484375 C-148.24623779 258.8902063 -148.57841309 258.06556885 -148.9206543 257.21594238 C-150.16292813 254.12612988 -151.39323769 251.03151797 -152.625 247.9375 C-155.38875 241.028125 -158.1525 234.11875 -161 227 C-178.49 227 -195.98 227 -214 227 C-219.60161727 240.96062866 -219.60161727 240.96062866 -225 255 C-209.82 255 -194.64 255 -179 255 C-177.494375 258.856875 -175.98875 262.71375 -174.4375 266.6875 C-167.45128658 284.52336604 -160.21671506 302.25615013 -153 320 C-133.2 320.495 -133.2 320.495 -113 321 C-113 286.02 -113 251.04 -113 215 C-101.78 215 -90.56 215 -79 215 C-79 214.34 -79 213.68 -79 213 C-79.86177856 212.62174072 -79.86177856 212.62174072 -80.7409668 212.23583984 C-85.07395769 209.86540864 -88.33114955 206.08052015 -91.8125 202.625 C-92.61365234 201.85671875 -93.41480469 201.0884375 -94.24023438 200.296875 C-94.99240234 199.55179688 -95.74457031 198.80671875 -96.51953125 198.0390625 C-97.55750854 197.02126709 -97.55750854 197.02126709 -98.61645508 195.98291016 C-100 194 -100 194 -99.9050293 191.99755859 C-99 190 -99 190 -96 186 C-123.06 186 -150.12 186 -178 186 C-195 144.27272727 -195 144.27272727 -195 142 C-204.9 142.33 -214.8 142.66 -225 143 C-226.485 146.815625 -227.97 150.63125 -229.5 154.5625 C-234.79207355 168.08217038 -240.28203095 181.51649033 -245.81030273 194.94091797 C-250.12198691 205.41259497 -254.3972087 215.89805353 -258.63803101 226.39862061 C-266.28257712 245.32564161 -274.11006878 264.17409981 -282 283 C-282.66 283 -283.32 283 -284 283 C-297.55512075 249.71785245 -300.5195827 210.3078068 -295 175 C-294.72542969 173.11667969 -294.72542969 173.11667969 -294.4453125 171.1953125 C-287.28874781 127.99086641 -266.15336358 88.44307973 -236 57 C-235.49597656 56.46874512 -234.99195313 55.93749023 -234.47265625 55.39013672 C-227.07800213 47.62897698 -219.3376384 40.68941079 -210.73535156 34.29101562 C-209.60478336 33.44992887 -208.47885704 32.60255486 -207.35839844 31.74804688 C-150.85224664 -11.34002779 -67.05878066 -26.54580233 0 0 Z " fill="#36ABE0" transform="translate(486,64)"/>
<path d="M0 0 C0.66 0 1.32 0 2 0 C2.80008365 1.97577908 3.58959921 3.95583847 4.375 5.9375 C4.81585937 7.03964844 5.25671875 8.14179688 5.7109375 9.27734375 C7.16332351 13.47165849 8.12807687 17.654567 9 22 C9.6705542 22.13051758 10.3411084 22.26103516 11.03198242 22.39550781 C14.08696654 22.99884406 17.13704745 23.6241723 20.1875 24.25 C21.24259766 24.45496094 22.29769531 24.65992188 23.38476562 24.87109375 C24.40634766 25.08378906 25.42792969 25.29648438 26.48046875 25.515625 C27.41785889 25.70415039 28.35524902 25.89267578 29.32104492 26.08691406 C32.72162653 27.24595673 34.57786891 28.31647621 37 31 C37.48370578 33.97747781 37.65650987 36.37275654 37.59375 39.34375 C37.59379028 40.14985718 37.59383057 40.95596436 37.59387207 41.78649902 C37.58851976 43.48779106 37.57094904 45.18908271 37.54199219 46.89013672 C37.5001395 49.49133005 37.50092379 52.08993301 37.5078125 54.69140625 C37.49731927 56.34637212 37.48438045 58.00132467 37.46875 59.65625 C37.46854858 60.43238647 37.46834717 61.20852295 37.46813965 62.00817871 C37.39942209 65.1502237 37.20148499 67.59783855 35.78320312 70.42871094 C33.55815193 72.38933929 31.8948231 72.86901471 29 73.484375 C28.030625 73.69707031 27.06125 73.90976562 26.0625 74.12890625 C25.051875 74.33386719 24.04125 74.53882813 23 74.75 C21.4840625 75.08064453 21.4840625 75.08064453 19.9375 75.41796875 C12.54813665 77 12.54813665 77 9 77 C8.84144531 77.72703125 8.68289063 78.4540625 8.51953125 79.203125 C6.45899094 88.08280147 3.56151138 96.38927952 -0.875 104.375 C-2.37529564 107.87568983 -2.00956226 109.31253105 -1 113 C1.14518394 116.74830031 3.70399657 120.22182694 6.2265625 123.72265625 C9.99251638 129.20486515 9.99251638 129.20486515 10.03125 133.3203125 C8.9595313 136.10515729 8.09006529 137.41819345 5.875 139.375 C3.31064642 141.75209855 0.94816673 144.14373191 -1.3125 146.8125 C-4.1559437 150.07127818 -7.03497586 153.28856362 -10 156.4375 C-10.78375 157.28183594 -11.5675 158.12617188 -12.375 158.99609375 C-15.86362915 161.65928833 -17.58663047 162.1897252 -22 162 C-26.53886262 159.87759559 -30.57352209 156.95106146 -34.70507812 154.13867188 C-39.60989862 150.72461897 -39.60989862 150.72461897 -45.32421875 150.48046875 C-46.20722656 150.98191406 -47.09023438 151.48335937 -48 152 C-48.79921875 152.37898437 -49.5984375 152.75796875 -50.421875 153.1484375 C-51.19015625 153.55320312 -51.9584375 153.95796875 -52.75 154.375 C-59.96223082 158.0516109 -67.19851389 160.83768334 -75 163 C-75.12528076 163.64026123 -75.25056152 164.28052246 -75.37963867 164.94018555 C-75.96260009 167.86028027 -76.57470578 170.77352629 -77.1875 173.6875 C-77.38408203 174.69490234 -77.58066406 175.70230469 -77.78320312 176.74023438 C-78.09741211 178.20493164 -78.09741211 178.20493164 -78.41796875 179.69921875 C-78.60125732 180.59471436 -78.7845459 181.49020996 -78.97338867 182.4128418 C-80.38739387 185.97626939 -81.93867396 187.68349408 -85 190 C-87.94348798 190.47545604 -90.29144436 190.65790419 -93.22265625 190.59375 C-94.00515244 190.59379028 -94.78764862 190.59383057 -95.59385681 190.59387207 C-97.24209663 190.58852788 -98.89033674 190.57099197 -100.53833008 190.54199219 C-103.05824737 190.50007075 -105.57549525 190.50093139 -108.09570312 190.5078125 C-109.70053936 190.49732122 -111.30536187 190.48438343 -112.91015625 190.46875 C-113.66128189 190.46854858 -114.41240753 190.46834717 -115.18629456 190.46813965 C-118.29565188 190.39789228 -120.63750475 190.18945617 -123.41503906 188.73779297 C-125.24371388 186.73278567 -125.8100007 185.35298255 -126.44921875 182.7265625 C-126.65740234 181.9015625 -126.86558594 181.0765625 -127.08007812 180.2265625 C-127.28052734 179.36804688 -127.48097656 178.50953125 -127.6875 177.625 C-127.89955078 176.77421875 -128.11160156 175.9234375 -128.33007812 175.046875 C-128.53439453 174.21929687 -128.73871094 173.39171875 -128.94921875 172.5390625 C-129.14523682 171.7454834 -129.34125488 170.9519043 -129.54321289 170.13427734 C-130 168 -130 168 -130.1640625 165.078125 C-130.89008896 162.59071082 -130.89008896 162.59071082 -134.32421875 161.4453125 C-135.77302414 160.987041 -137.22803057 160.5480825 -138.6875 160.125 C-145.96028815 157.82820857 -152.39377801 154.93546274 -159.046875 151.22265625 C-162.5135054 149.7873979 -163.5265415 149.66445262 -167 151 C-169.81296074 152.56411274 -172.49949211 154.29400974 -175.1875 156.0625 C-176.6159116 156.99484702 -178.04678794 157.92343225 -179.48046875 158.84765625 C-180.10848389 159.26023682 -180.73649902 159.67281738 -181.38354492 160.09790039 C-183 161 -183 161 -185 161 C-185 135.26 -185 109.52 -185 83 C-182.14372378 84.42813811 -181.85450371 86.28528395 -180.5625 89.1875 C-170.90023134 108.86296718 -153.27750384 123.70587611 -132.68945312 131.12231445 C-122.8602765 134.33000236 -113.43816495 135.52858432 -103.125 135.4375 C-101.89483154 135.42847656 -100.66466309 135.41945313 -99.3972168 135.41015625 C-90.31054211 135.23701948 -82.49716991 134.42783559 -74 131 C-73.319375 130.72623535 -72.63875 130.4524707 -71.9375 130.17041016 C-49.68615905 121.00663247 -32.9331458 105.50458076 -23.28125 83.33203125 C-20.01702987 74.84306853 -17.34022942 66.12948949 -17 57 C-16.9484375 55.81921875 -16.896875 54.6384375 -16.84375 53.421875 C-16.59946608 44.95821694 -17.45444232 37.33982115 -19.44140625 29.109375 C-19.99012352 26.05497678 -19.98654218 24.84368601 -19 22 C-17.1735436 19.84800799 -15.33900374 17.82992794 -13.375 15.8125 C-9.02550468 11.24791974 -5.00157567 6.634024 -1.3046875 1.51171875 C-0.65886719 0.76341797 -0.65886719 0.76341797 0 0 Z " fill="#FBFDFD" transform="translate(570,217)"/>
<path d="M0 0 C3.40013186 0.5765441 4.92670485 1.60997661 7.25 4.125 C10.4133426 7.45231716 13.75781036 10.40770636 17.30078125 13.32421875 C19.09642786 15.09509782 20.01111769 16.69595442 21 19 C9.63161713 32.34967464 9.63161713 32.34967464 4.3125 38.1875 C1.28287132 41.52227114 -1.60608092 44.93287639 -4.4375 48.4375 C-8.29825137 53.211403 -12.37437075 57.73388428 -16.53125 62.25 C-18.94378104 64.93737634 -21.2325621 67.68965444 -23.5 70.5 C-26.55348679 74.28460334 -29.70668301 77.92207537 -33 81.5 C-37.01529746 85.86686729 -40.79137958 90.36811827 -44.51953125 94.98046875 C-51.04229591 102.92077912 -57.83699685 110.64811366 -64.75 118.25 C-68.57831832 122.46953333 -72.16734587 126.85269142 -75.75 131.28125 C-77.93501569 133.92147729 -80.19171391 136.4672972 -82.5 139 C-85.52282421 142.31989486 -88.42512161 145.69764112 -91.25 149.1875 C-96.4449835 155.60005776 -101.86139722 161.8102684 -107.28417969 168.02978516 C-109.59181751 170.67956279 -111.89165975 173.33604949 -114.19140625 175.99267578 C-129.75596474 193.97226872 -129.75596474 193.97226872 -132.75 194.3125 C-136.70423332 193.93228526 -138.22469326 192.77530674 -141 190 C-141 189.34 -141 188.68 -141 188 C-141.55185471 187.77182587 -142.10370941 187.54365173 -142.67228699 187.30856323 C-145.6787818 185.61841134 -147.78920027 183.48874861 -150.2434082 181.06298828 C-151.00747231 180.31140945 -151.00747231 180.31140945 -151.78697205 179.54464722 C-153.46370035 177.89195475 -155.1327257 176.23175518 -156.80078125 174.5703125 C-157.96323664 173.41682389 -159.12576927 172.26341312 -160.28837585 171.1100769 C-162.72047509 168.69444961 -165.14816172 166.27447868 -167.57348633 163.85205078 C-170.68687375 160.74406447 -173.81611839 157.65257932 -176.94950581 154.56477547 C-179.35391478 152.1900466 -181.74705364 149.80420496 -184.13716698 147.41509628 C-185.28658226 146.26989645 -186.44013326 145.12883241 -187.59780312 143.99197769 C-189.21174307 142.40478132 -190.80924791 140.80267378 -192.40356445 139.19580078 C-193.31749466 138.28694122 -194.23142487 137.37808167 -195.17304993 136.44168091 C-197 134 -197 134 -196.90324402 131.83688354 C-194.52622993 127.00286531 -190.50121637 123.04300193 -187 119 C-186.42121094 118.31164062 -185.84242188 117.62328125 -185.24609375 116.9140625 C-183.75 115.25 -183.75 115.25 -181 113 C-176.71256983 113.2184517 -174.74139687 114.77593044 -171.80810547 117.78540039 C-171.01733612 118.58615494 -170.22656677 119.38690948 -169.41183472 120.21192932 C-168.57210114 121.08171921 -167.73236755 121.95150909 -166.8671875 122.84765625 C-165.99353546 123.7340831 -165.11988342 124.62050995 -164.21975708 125.53379822 C-161.90249122 127.88615769 -159.59333741 130.24606841 -157.2890625 132.61114502 C-154.03682216 135.94915534 -150.77874799 139.28122088 -147.50881958 142.60191345 C-145.76851104 144.36963516 -144.03544992 146.14452577 -142.31027222 147.92701721 C-141.52580719 148.7246196 -140.74134216 149.52222198 -139.93310547 150.34399414 C-139.24425262 151.05157364 -138.55539978 151.75915314 -137.84567261 152.48817444 C-136.01083529 154.316836 -136.01083529 154.316836 -133 154 C-131.03504643 152.02402623 -131.03504643 152.02402623 -129.0625 149.375 C-128.26457031 148.36695313 -127.46664062 147.35890625 -126.64453125 146.3203125 C-126.2160791 145.77793945 -125.78762695 145.23556641 -125.34619141 144.67675781 C-123.04617565 141.81195762 -120.64833333 139.03255332 -118.25 136.25 C-117.74670166 135.66460449 -117.24340332 135.07920898 -116.72485352 134.47607422 C-112.44929243 129.50886837 -108.15424213 124.55851759 -103.85864258 119.60864258 C-98.70871489 113.67173892 -93.59322109 107.70572659 -88.48388672 101.73388672 C-85.49312234 98.2392489 -82.49907918 94.74741693 -79.50415039 91.25634766 C-76.97427218 88.30668055 -74.44836171 85.35377355 -71.9296875 82.39453125 C-67.29869618 76.96058877 -62.64454156 71.57023919 -57.8125 66.3125 C-53.76333052 61.9011045 -49.9684538 57.33309429 -46.20703125 52.67578125 C-43.37041945 49.23670323 -40.38096735 45.95459199 -37.37890625 42.66015625 C-34.71129515 39.67716255 -32.13325856 36.62881023 -29.5625 33.5625 C-25.25013056 28.42488684 -20.81226831 23.4354702 -16.27734375 18.4921875 C-13.12685651 15.04448448 -10.06155649 11.5265125 -7 8 C-5.6880486 6.49952015 -4.37555767 4.99951186 -3.0625 3.5 C-2.18271484 2.49453125 -2.18271484 2.49453125 -1.28515625 1.46875 C-0.86105469 0.9840625 -0.43695312 0.499375 0 0 Z " fill="#FBFCFC" transform="translate(599,122)"/>
<path d="M0 0 C0.75934341 -0.00287018 1.51868683 -0.00574036 2.30104065 -0.00869751 C3.90390775 -0.01073507 5.50679989 -0.00522672 7.10961914 0.00732422 C9.55476925 0.02336118 11.99826101 0.00747779 14.44335938 -0.01171875 C16.00390988 -0.00973583 17.56445936 -0.00589113 19.125 0 C19.85222763 -0.00607269 20.57945526 -0.01214539 21.32872009 -0.0184021 C25.74760127 0.04238458 28.68293632 0.56083958 32.12890625 3.3984375 C33.13964844 5.29614258 33.13964844 5.29614258 33.67578125 7.41796875 C33.88074219 8.19333984 34.08570313 8.96871094 34.296875 9.76757812 C34.58498047 10.97704102 34.58498047 10.97704102 34.87890625 12.2109375 C35.08644531 13.00564453 35.29398438 13.80035156 35.5078125 14.61914062 C36.39963266 18.09723925 37.12413223 21.10858615 37.18359375 24.71875 C37.84595871 27.47410207 37.84595871 27.47410207 39.90039062 28.52709961 C42.40064077 29.64139886 44.91641271 30.56792512 47.50390625 31.4609375 C49.33678822 32.13571453 51.16882782 32.81278425 53 33.4921875 C53.8854248 33.81445312 54.77084961 34.13671875 55.68310547 34.46875 C59.56468176 35.94419845 63.25026517 37.78226837 66.9375 39.68359375 C69.89107388 40.64705903 71.17397694 40.42031507 74.12890625 39.3984375 C77.59192589 37.41936762 80.86838728 35.15587018 84.15820312 32.90429688 C88.30841196 30.17814074 90.97976407 28.76184559 96.12890625 29.3984375 C96.12890625 31.3984375 96.12890625 31.3984375 93.92578125 33.703125 C93.0028125 34.59257812 92.07984375 35.48203125 91.12890625 36.3984375 C85.27742537 42.6180579 79.73294727 49.03239463 74.375 55.6796875 C71.32970157 59.36582265 68.11862733 62.8870214 64.87890625 66.40234375 C63.08108646 68.28294425 63.08108646 68.28294425 62.12890625 70.3984375 C59.81488612 69.26103777 57.53982312 68.07851137 55.2734375 66.84765625 C34.64816083 55.94261548 10.31735404 51.42341789 -12.61328125 57.36328125 C-28.34476566 62.3618944 -41.02064144 69.74884031 -52.87109375 81.3984375 C-53.56976563 82.08421875 -54.2684375 82.77 -54.98828125 83.4765625 C-62.66393567 91.5404796 -67.51221593 101.22772258 -71.87109375 111.3984375 C-81.77109375 111.3984375 -91.67109375 111.3984375 -101.87109375 111.3984375 C-100.45673344 105.03381611 -99.04333938 99.91780463 -96.37109375 94.1484375 C-95.75589634 92.7893403 -95.14129834 91.42997159 -94.52734375 90.0703125 C-94.25728516 89.4834668 -93.98722656 88.89662109 -93.70898438 88.29199219 C-93.43248047 87.66711914 -93.15597656 87.04224609 -92.87109375 86.3984375 C-92.24968506 85.19127075 -92.24968506 85.19127075 -91.61572266 83.9597168 C-90.59874745 81.41910649 -90.59874745 81.41910649 -91.74560547 79.09008789 C-92.25881348 78.31656982 -92.77202148 77.54305176 -93.30078125 76.74609375 C-93.84863281 75.88693359 -94.39648438 75.02777344 -94.9609375 74.14257812 C-95.55003906 73.25763672 -96.13914062 72.37269531 -96.74609375 71.4609375 C-97.9015451 69.70982664 -99.04524116 67.95089003 -100.17578125 66.18359375 C-100.94897705 65.02162476 -100.94897705 65.02162476 -101.73779297 63.83618164 C-103.21579951 60.6569711 -103.44492988 58.87354743 -102.87109375 55.3984375 C-101.10849602 53.0386673 -99.47620112 51.16069265 -97.39453125 49.125 C-96.83166412 48.55639252 -96.268797 47.98778503 -95.68887329 47.40194702 C-94.49737818 46.20637744 -93.29830589 45.01831776 -92.09228516 43.83740234 C-90.25189362 42.02913613 -88.44569798 40.19110364 -86.640625 38.34765625 C-85.47717929 37.18817554 -84.31187364 36.03055752 -83.14453125 34.875 C-82.6067807 34.32510406 -82.06903015 33.77520813 -81.51498413 33.20864868 C-78.96493333 30.75133059 -77.29562577 29.4682309 -73.7644043 28.88769531 C-70.61895495 29.44294635 -68.90431112 30.26500982 -66.3046875 32.09375 C-65.48935547 32.64417969 -64.67402344 33.19460937 -63.83398438 33.76171875 C-62.14409363 34.94059071 -60.45660455 36.12291258 -58.77148438 37.30859375 C-57.95744141 37.85644531 -57.14339844 38.40429688 -56.3046875 38.96875 C-55.57306396 39.48195801 -54.84144043 39.99516602 -54.08764648 40.52392578 C-51.83763969 41.67326071 -51.83763969 41.67326071 -49.30322266 40.64941406 C-48.50062012 40.2365918 -47.69801758 39.82376953 -46.87109375 39.3984375 C-45.21400391 38.61339844 -45.21400391 38.61339844 -43.5234375 37.8125 C-42.92370117 37.52318604 -42.32396484 37.23387207 -41.70605469 36.93579102 C-23.95055254 28.3984375 -23.95055254 28.3984375 -16.87109375 28.3984375 C-16.8453125 27.76679688 -16.81953125 27.13515625 -16.79296875 26.484375 C-15.57537509 7.27960227 -15.57537509 7.27960227 -10.28613281 1.73779297 C-6.91395287 -0.13238284 -3.75698498 -0.03128551 0 0 Z " fill="#FBFDFD" transform="translate(456.87109375,125.6015625)"/>
<path d="M0 0 C4.29 0 8.58 0 13 0 C14.69215368 3.64719097 16.38332826 7.29481134 18.07202148 10.94360352 C18.64664297 12.18442931 19.22183366 13.42499167 19.79760742 14.6652832 C20.62568809 16.44933621 21.4515448 18.23442094 22.27734375 20.01953125 C22.77484131 21.09307861 23.27233887 22.16662598 23.78491211 23.27270508 C25 26 25 26 26 29 C29.87571782 21.5041062 33.41572063 13.92909165 36.72680664 6.16992188 C38.90199206 1.09800794 38.90199206 1.09800794 40 0 C44.29 0 48.58 0 53 0 C53 16.83 53 33.66 53 51 C49.7 51 46.4 51 43 51 C42.67 40.11 42.34 29.22 42 18 C38.04 26.58 34.08 35.16 30 44 C27.69 44 25.38 44 23 44 C21.18461635 40.23054828 19.37318938 36.45920862 17.5625 32.6875 C17.04623047 31.61564453 16.52996094 30.54378906 15.99804688 29.43945312 C15.50498047 28.41142578 15.01191406 27.38339844 14.50390625 26.32421875 C14.04830322 25.37635498 13.5927002 24.42849121 13.12329102 23.4519043 C12 21 12 21 11 18 C10.67 28.89 10.34 39.78 10 51 C6.7 51 3.4 51 0 51 C0 34.17 0 17.34 0 0 Z " fill="#313A7E" transform="translate(538,541)"/>
<path d="M0 0 C3.13408464 1.22251529 6.5894675 2.5894675 9 5 C9.33 3.68 9.66 2.36 10 1 C12.97 1 15.94 1 19 1 C19.07433795 6.87155408 19.12869117 12.74283219 19.16479492 18.61474609 C19.17985098 20.61088841 19.20030027 22.60699781 19.22631836 24.60302734 C19.26284161 27.47762185 19.27975837 30.35177772 19.29296875 33.2265625 C19.30845261 34.11429352 19.32393646 35.00202454 19.33988953 35.91665649 C19.34127194 41.04393496 18.87345265 44.57053368 16 49 C9.65233973 55.07167504 4.61179894 56.4552609 -3.98046875 56.328125 C-9.21380784 55.75943097 -13.24521137 53.75478863 -17 50 C-16.61121812 46.98694043 -15.73543126 45.60314689 -14 43 C-9.23966942 44.85123967 -9.23966942 44.85123967 -7.1875 46.125 C-3.80271349 47.4789146 -0.5530666 47.54282962 3 47 C6.08817732 45.74612994 6.08817732 45.74612994 8 43 C8.69195433 39.99980996 8.92776018 37.07347615 9 34 C8.2575 34.825 7.515 35.65 6.75 36.5 C2.80215764 39.77267692 -1.1100015 39.76912524 -6.0859375 39.546875 C-10.69505964 38.68189229 -13.19385218 36.67588954 -16 33 C-19.90043795 26.83479162 -19.80177044 20.13485609 -19 13 C-17.30399164 7.55744209 -13.44538894 4.28572226 -9 1 C-5.87143524 -0.56428238 -3.47287869 -0.28007086 0 0 Z " fill="#32397F" transform="translate(750,552)"/>
<path d="M0 0 C3.3 0 6.6 0 10 0 C10.33 6.27 10.66 12.54 11 19 C12.65 17.68 14.3 16.36 16 15 C20.65137768 14.06382731 24.93170664 14.624119 29.375 16.1875 C34.79697363 19.9312437 37.41516393 24.72857725 39 31 C40.2111798 38.29340877 38.01534589 43.91680569 34 50 C29.43263741 54.45861586 25.48785659 55.34354866 19.296875 55.29296875 C15.63213916 54.82552795 13.76414093 53.40976388 11 51 C11 50.34 11 49.68 11 49 C10.34 49 9.68 49 9 49 C9 50.65 9 52.3 9 54 C6.03 54 3.06 54 0 54 C0 36.18 0 18.36 0 0 Z " fill="#313A82" transform="translate(226,538)"/>
<path d="M0 0 C2.87448676 -0.32370346 5.61377768 -0.18789148 8.50146484 -0.0871582 C9.73823975 -0.04401489 9.73823975 -0.04401489 11 0 C15.51183053 9.45246275 19.55494027 19.04418687 23.43408203 28.76953125 C24.38851994 31.15884547 25.35223056 33.54428865 26.31640625 35.9296875 C26.92764082 37.45550596 27.53833862 38.98153958 28.1484375 40.5078125 C28.43584808 41.21712921 28.72325867 41.92644592 29.01937866 42.65725708 C30.18312467 45.59440306 31 47.80975009 31 51 C27.7 51 24.4 51 21 51 C19.35 47.37 17.7 43.74 16 40 C8.74 39.67 1.48 39.34 -6 39 C-6.33 40.32 -6.66 41.64 -7 43 C-7.94685616 45.68848278 -8.97956875 48.33800543 -10 51 C-13.3 51 -16.6 51 -20 51 C-18.72638715 44.54751066 -16.90878181 38.75429938 -14.375 32.6953125 C-14.02743652 31.8495163 -13.67987305 31.00372009 -13.32177734 30.1322937 C-12.59229922 28.36119239 -11.85934386 26.59151958 -11.12304688 24.82324219 C-9.9956907 22.11464645 -8.87982636 19.40153002 -7.765625 16.6875 C-7.05274696 14.96066339 -6.33922802 13.23409119 -5.625 11.5078125 C-5.29161621 10.69845245 -4.95823242 9.88909241 -4.61474609 9.0552063 C-4.30102051 8.30367279 -3.98729492 7.55213928 -3.6640625 6.77783203 C-3.39029785 6.1188089 -3.1165332 5.45978577 -2.83447266 4.78079224 C-2 3 -2 3 0 0 Z " fill="#2E387D" transform="translate(51,541)"/>
<path d="M0 0 C4.97730435 3.73297826 8.15566607 7.76439122 9.5 13.875 C9.5 16.515 9.5 19.155 9.5 21.875 C0.26 21.875 -8.98 21.875 -18.5 21.875 C-16.62079667 27.11433006 -16.62079667 27.11433006 -12.5 29.875 C-6.48539097 30.66938232 -3.3811528 29.06269162 1.5 25.875 C3.975 27.855 3.975 27.855 6.5 29.875 C4.39969629 34.74105018 1.37077723 36.92361606 -3.5 38.875 C-9.42550579 39.87582269 -14.73808001 39.7798597 -20 36.6875 C-24.57561241 33.31749501 -28.01698982 29.43628816 -29.5 23.875 C-30.27954872 17.04804304 -29.64623147 11.48743506 -25.5 5.875 C-18.17768471 -1.61039581 -10.23154664 -3.28871142 0 0 Z " fill="#30367C" transform="translate(806.5,554.125)"/>
<path d="M0 0 C1.2684375 -0.01933594 2.536875 -0.03867187 3.84375 -0.05859375 C9.34505103 0.68784346 12.16375379 2.96248116 15.83203125 7.01171875 C18.14876195 11.76996893 18.1341166 16.02198535 18.1875 21.25 C18.22938135 23.1524286 18.27475766 25.05478462 18.32421875 26.95703125 C18.34101685 28.21157104 18.34101685 28.21157104 18.3581543 29.49145508 C18.28718268 31.4426266 18.28718268 31.4426266 19.5 32.4375 C19.64115161 35.10808851 19.54247107 37.76182238 19.5 40.4375 C14.21502591 40.87791451 14.21502591 40.87791451 11.5 40.4375 C9 37.9375 9 37.9375 7.5 35.4375 C6.324375 36.3965625 6.324375 36.3965625 5.125 37.375 C0.41911906 41.07247788 -3.64331841 41.09323275 -9.5 40.4375 C-12.7138627 38.83056865 -14.66978419 37.49413831 -16.875 34.6875 C-17.85277225 31.16751989 -18.27517178 28.00196511 -17.5 24.4375 C-15.14854387 20.56538612 -12.83251964 17.88167321 -8.5 16.4375 C-5.76134713 16.36698886 -3.04972412 16.34392235 -0.3125 16.375 C0.43708984 16.37951172 1.18667969 16.38402344 1.95898438 16.38867188 C3.80602383 16.40043646 5.65302213 16.41837135 7.5 16.4375 C6.53223902 12.64202079 6.53223902 12.64202079 4.5 9.4375 C2.71162378 9.31225541 0.91771786 9.26176324 -0.875 9.25 C-1.85210938 9.23582031 -2.82921875 9.22164062 -3.8359375 9.20703125 C-6.72787022 9.24208017 -6.72787022 9.24208017 -9.5 11.4375 C-10.49 11.4375 -11.48 11.4375 -12.5 11.4375 C-13.79024129 9.3123967 -14.5 7.88404501 -14.5 5.375 C-11.77314508 0.09171859 -5.27018263 0.00535588 0 0 Z " fill="#31397F" transform="translate(705.5,552.5625)"/>
<path d="M0 0 C1.28003906 -0.00773438 2.56007813 -0.01546875 3.87890625 -0.0234375 C8.91334815 0.54024315 11.38713985 2.17875649 14.6875 5.9375 C17.19003966 9.42318024 17.55954268 11.13957397 17.53515625 15.3828125 C17.53193359 16.36894531 17.52871094 17.35507812 17.52539062 18.37109375 C17.51282227 19.91990234 17.51282227 19.91990234 17.5 21.5 C17.49548828 22.54027344 17.49097656 23.58054687 17.48632812 24.65234375 C17.47451952 27.22661962 17.45805075 29.80078146 17.4375 32.375 C18.0975 32.375 18.7575 32.375 19.4375 32.375 C19.4375 35.015 19.4375 37.655 19.4375 40.375 C14.15252591 40.81541451 14.15252591 40.81541451 11.4375 40.375 C8.9375 37.875 8.9375 37.875 7.4375 35.375 C6.261875 36.3340625 6.261875 36.3340625 5.0625 37.3125 C0.95872959 40.53689104 -1.80913818 40.82664992 -6.9453125 40.796875 C-11.21957177 40.10788992 -13.9129332 37.70518946 -16.5625 34.375 C-17.78012731 30.72211807 -17.95325851 28.21745864 -17.5625 24.375 C-15.43675021 20.63368037 -12.62982851 17.83245938 -8.5625 16.375 C-5.77425242 16.23502773 -3.09422884 16.1861087 -0.3125 16.25 C0.43257813 16.25902344 1.17765625 16.26804687 1.9453125 16.27734375 C3.77618059 16.30081642 5.60688238 16.33668475 7.4375 16.375 C6.46973902 12.57952079 6.46973902 12.57952079 4.4375 9.375 C2.64912378 9.24975541 0.85521786 9.19926324 -0.9375 9.1875 C-1.91460937 9.17332031 -2.89171875 9.15914062 -3.8984375 9.14453125 C-6.79037022 9.17958017 -6.79037022 9.17958017 -9.5625 11.375 C-10.5525 11.375 -11.5425 11.375 -12.5625 11.375 C-13.85274129 9.2498967 -14.5625 7.82154501 -14.5625 5.3125 C-11.81192475 -0.01673955 -5.3009301 -0.03209443 0 0 Z " fill="#323A81" transform="translate(287.5625,552.625)"/>
<path d="M0 0 C1.06178467 0.0014502 1.06178467 0.0014502 2.14501953 0.00292969 C7.32017119 0.17787114 10.35849161 1.111197 13.8984375 4.859375 C16.38133002 8.49206338 17.3118733 11.11388932 17.2578125 15.546875 C17.25136719 16.48144531 17.24492187 17.41601562 17.23828125 18.37890625 C17.22152344 19.34699219 17.20476562 20.31507813 17.1875 21.3125 C17.17847656 22.29605469 17.16945313 23.27960937 17.16015625 24.29296875 C17.13662785 26.71639407 17.10375368 29.13932222 17.0625 31.5625 C17.7225 31.5625 18.3825 31.5625 19.0625 31.5625 C19.16015625 37.71484375 19.16015625 37.71484375 19.0625 39.5625 C18.0625 40.5625 18.0625 40.5625 15.3125 40.9375 C11.07014168 40.44799712 9.76689649 38.74414293 7.0625 35.5625 C6.299375 36.201875 5.53625 36.84125 4.75 37.5 C0.70892111 40.6012931 -2.71048278 40.96231613 -7.6484375 40.9140625 C-11.59795068 40.30748198 -13.23951195 38.45790181 -15.9375 35.5625 C-18.48465119 32.08911201 -18.4453513 28.77041074 -17.9375 24.5625 C-15.80018175 20.82432187 -13.00983276 18.02175257 -8.9375 16.5625 C-6.14925242 16.42252773 -3.46922884 16.3736087 -0.6875 16.4375 C0.05757813 16.44652344 0.80265625 16.45554687 1.5703125 16.46484375 C3.40118059 16.48831642 5.23188238 16.52418475 7.0625 16.5625 C6.46066251 14.54204558 5.78943904 12.54138961 5.0625 10.5625 C0.61166655 8.33708328 -5.46001213 9.08970388 -10.0625 10.5625 C-10.990625 11.0575 -10.990625 11.0575 -11.9375 11.5625 C-14.91742472 8.22498432 -14.91742472 8.22498432 -15 5.5 C-12.09512512 0.20287522 -5.43799773 -0.01791762 0 0 Z " fill="#353C81" transform="translate(411.9375,552.4375)"/>
<path d="M0 0 C4.26964672 2.17131607 5.92731545 4.95386582 7.578125 9.3046875 C7.92882542 12.93967933 7.86199923 16.53229343 7.765625 20.1796875 C7.74532227 21.64148438 7.74532227 21.64148438 7.72460938 23.1328125 C7.68944462 25.52401613 7.6402317 27.91405725 7.578125 30.3046875 C8.238125 30.3046875 8.898125 30.3046875 9.578125 30.3046875 C9.578125 33.2746875 9.578125 36.2446875 9.578125 39.3046875 C6.390625 39.6171875 6.390625 39.6171875 2.578125 39.3046875 C-0.359375 36.8046875 -0.359375 36.8046875 -2.421875 34.3046875 C-3.185 34.9440625 -3.948125 35.5834375 -4.734375 36.2421875 C-8.53127017 39.15608379 -11.5960238 39.64634055 -16.35546875 39.59375 C-19.7369544 39.12072554 -21.84853584 37.4491368 -24.421875 35.3046875 C-27.2507048 31.0614428 -27.07455501 27.28734221 -26.421875 22.3046875 C-24.31066589 18.68547188 -22.31910324 16.75332826 -18.421875 15.3046875 C-15.63362742 15.16471523 -12.95360384 15.1157962 -10.171875 15.1796875 C-9.42679688 15.18871094 -8.68171875 15.19773437 -7.9140625 15.20703125 C-6.08319441 15.23050392 -4.25249262 15.26637225 -2.421875 15.3046875 C-3.38963598 11.50920829 -3.38963598 11.50920829 -5.421875 8.3046875 C-7.1684509 8.17867615 -8.9207984 8.12889256 -10.671875 8.1171875 C-11.62578125 8.10300781 -12.5796875 8.08882812 -13.5625 8.07421875 C-16.54886959 8.3149234 -18.71558241 9.0552495 -21.421875 10.3046875 C-24.421875 6.6796875 -24.421875 6.6796875 -24.421875 3.3046875 C-17.49747514 -2.09972214 -8.33715495 -2.39357029 0 0 Z " fill="#32397E" transform="translate(626.421875,553.6953125)"/>
<path d="M0 0 C3.3 0 6.6 0 10 0 C10.33 6.27 10.66 12.54 11 19 C12.65 17.68 14.3 16.36 16 15 C18.9375 14.50390625 18.9375 14.50390625 22 14.5625 C23.010625 14.56378906 24.02125 14.56507813 25.0625 14.56640625 C28.4969994 15.07336028 30.28699482 15.83234552 33 18 C35.76178491 22.53221301 36.36054217 25.87771071 36.29296875 31.1484375 C36.28872391 31.80582916 36.28447906 32.46322083 36.28010559 33.14053345 C36.26344977 35.21912391 36.2258262 37.29670774 36.1875 39.375 C36.17243605 40.79295464 36.15875065 42.21092464 36.14648438 43.62890625 C36.11359038 47.0862589 36.06190165 50.54303103 36 54 C32.7 54 29.4 54 26 54 C25.9906543 53.19780029 25.98130859 52.39560059 25.97167969 51.5690918 C25.91806258 47.94126361 25.83439702 44.31473708 25.75 40.6875 C25.73582031 39.42486328 25.72164062 38.16222656 25.70703125 36.86132812 C25.67480469 35.65283203 25.64257812 34.44433594 25.609375 33.19921875 C25.58842773 32.08377686 25.56748047 30.96833496 25.54589844 29.8190918 C25.25439744 26.90993668 25.25439744 26.90993668 23.14941406 25.13989258 C20.19301707 23.57203506 18.29969213 23.5187949 15 24 C12.20528315 26.14206602 11.12533725 27.347753 10.45410156 30.84082031 C10.4331543 31.90913086 10.41220703 32.97744141 10.390625 34.078125 C10.35839844 35.23828125 10.32617188 36.3984375 10.29296875 37.59375 C10.27169922 39.40359375 10.27169922 39.40359375 10.25 41.25 C10.22035156 42.47203125 10.19070312 43.6940625 10.16015625 44.953125 C10.08947598 47.96881644 10.03676825 50.9837355 10 54 C6.7 54 3.4 54 0 54 C0 36.18 0 18.36 0 0 Z " fill="#323C82" transform="translate(180,538)"/>
<path d="M0 0 C3.3 0 6.6 0 10 0 C10.33 9.57 10.66 19.14 11 29 C18.45491964 22.07885746 18.45491964 22.07885746 21.3125 17.5 C24.52325859 14.51324782 25.55731358 14.63585507 29.8125 14.625 C31.54351663 14.72104055 33.27402225 14.83677268 35 15 C33.01286647 19.97357699 28.90616922 22.94784407 25.01953125 26.46484375 C22.7053708 28.77395175 22.7053708 28.77395175 23.20361328 31.38623047 C24.04061332 34.13329436 25.0870438 36.00415997 26.72265625 38.35546875 C27.26083984 39.14244141 27.79902344 39.92941406 28.35351562 40.74023438 C28.91748047 41.54783203 29.48144531 42.35542969 30.0625 43.1875 C31.18242733 44.80319538 32.2985215 46.42155672 33.41015625 48.04296875 C33.90652588 48.75477295 34.40289551 49.46657715 34.91430664 50.19995117 C36 52 36 52 36 54 C32.04420207 54.93164587 28.91857 55.18561862 25 54 C20.98524336 50.16392516 18.3994629 44.94111619 16 40 C16 39.34 16 38.68 16 38 C15.34 38 14.68 38 14 38 C13.690625 38.639375 13.38125 39.27875 13.0625 39.9375 C12 42 12 42 11 43 C10.76636119 44.84891946 10.58696365 46.70488031 10.4375 48.5625 C10.35371094 49.57441406 10.26992188 50.58632813 10.18359375 51.62890625 C10.12300781 52.41136719 10.06242187 53.19382812 10 54 C6.7 54 3.4 54 0 54 C0 36.18 0 18.36 0 0 Z " fill="#313A82" transform="translate(476,538)"/>
<path d="M0 0 C2.97 0 5.94 0 9 0 C9.66 1.32 10.32 2.64 11 4 C11.763125 3.34 12.52625 2.68 13.3125 2 C17.83465298 -1.00760768 22.77821613 -0.77589656 28 0 C32.12776242 2.02767277 34.39991677 3.70585272 36 8 C36.22705078 11.29980469 36.22705078 11.29980469 36.1953125 15.171875 C36.1924826 15.8542926 36.18965271 16.53671021 36.18673706 17.23980713 C36.17558098 19.41005307 36.15048557 21.57987971 36.125 23.75 C36.11496426 25.22525444 36.10583944 26.70051537 36.09765625 28.17578125 C36.07565687 31.78398942 36.04115883 35.39195375 36 39 C32.7 39 29.4 39 26 39 C25.98541748 38.16227051 25.97083496 37.32454102 25.95581055 36.46142578 C25.89479293 33.35621098 25.82064935 30.25166883 25.73754883 27.14697266 C25.68790041 25.14117664 25.65345836 23.13502313 25.61914062 21.12890625 C25.58369141 19.87207031 25.54824219 18.61523438 25.51171875 17.3203125 C25.48553467 16.15773926 25.45935059 14.99516602 25.43237305 13.79736328 C25.28968994 12.8742334 25.14700684 11.95110352 25 11 C21.48175489 8.65450326 20.14224306 8.42008597 16 9 C13.45822254 10.65947657 12.43494794 11.41822099 11 14 C10.23492622 18.26498395 10.20930677 22.48749106 10.1875 26.8125 C10.16236328 27.98232422 10.13722656 29.15214844 10.11132812 30.35742188 C10.05252818 33.2386193 10.01619468 36.11829983 10 39 C6.7 39 3.4 39 0 39 C0 26.13 0 13.26 0 0 Z " fill="#333D80" transform="translate(88,553)"/>
<path d="M0 0 C3.3 0 6.6 0 10 0 C10.01981934 0.83772949 10.03963867 1.67545898 10.06005859 2.53857422 C10.13810612 5.64365834 10.22479635 8.74834539 10.31738281 11.85302734 C10.37454036 13.85886971 10.42168596 15.86498918 10.46875 17.87109375 C10.50742188 19.12792969 10.54609375 20.38476562 10.5859375 21.6796875 C10.6173584 22.84226074 10.6487793 24.00483398 10.68115234 25.20263672 C10.72157869 28.13656482 10.72157869 28.13656482 13 30 C17.08061989 30.56507117 17.08061989 30.56507117 21 30 C24.48944084 26.39161021 25.50706268 24.03069441 25.609375 19.04296875 C25.64160156 17.93115234 25.67382812 16.81933594 25.70703125 15.67382812 C25.72121094 14.52333984 25.73539063 13.37285156 25.75 12.1875 C25.79447266 10.43276367 25.79447266 10.43276367 25.83984375 8.64257812 C25.91039709 5.76164991 25.96316729 2.88152422 26 0 C28.97 0 31.94 0 35 0 C35 12.87 35 25.74 35 39 C32.03 39 29.06 39 26 39 C25.67 37.68 25.34 36.36 25 35 C23.824375 35.9590625 23.824375 35.9590625 22.625 36.9375 C18.48318442 40.19178367 15.723012 40.40001602 10.546875 40.34765625 C6.33970028 39.77336399 4.80330688 38.15372024 2 35 C-0.08902573 30.91868747 -0.23402894 27.49840003 -0.1953125 22.94921875 C-0.1924826 22.29041214 -0.18965271 21.63160553 -0.18673706 20.95283508 C-0.17560924 18.86419938 -0.15051948 16.77600444 -0.125 14.6875 C-0.11496059 13.26498018 -0.10583642 11.8424536 -0.09765625 10.41992188 C-0.07569447 6.94647319 -0.04121646 3.47327967 0 0 Z " fill="#354082" transform="translate(134,553)"/>
<path d="M0 0 C3.22165389 1.65026339 5.35798591 3.71597182 7 7 C7.08639869 9.40838678 7.11567764 11.78733881 7.09765625 14.1953125 C7.0962413 14.90275604 7.09482635 15.61019958 7.09336853 16.33908081 C7.087766 18.60109669 7.07521318 20.86301398 7.0625 23.125 C7.05748532 24.65755065 7.05292236 26.19010286 7.04882812 27.72265625 C7.03779577 31.48180888 7.02052952 35.24088772 7 39 C4.03 39 1.06 39 -2 39 C-2.0093457 38.19780029 -2.01869141 37.39560059 -2.02832031 36.5690918 C-2.08193742 32.94126361 -2.16560298 29.31473708 -2.25 25.6875 C-2.26417969 24.42486328 -2.27835938 23.16222656 -2.29296875 21.86132812 C-2.32519531 20.65283203 -2.35742188 19.44433594 -2.390625 18.19921875 C-2.41157227 17.08377686 -2.43251953 15.96833496 -2.45410156 14.8190918 C-2.74488874 11.90922665 -2.74488874 11.90922665 -4.85449219 10.14379883 C-7.85586503 8.54372694 -9.64377341 8.45204464 -13 9 C-15.5333615 10.66017625 -16.56432516 11.42525273 -18 14 C-18.76550124 18.26488149 -18.79069342 22.48752856 -18.8125 26.8125 C-18.83763672 27.98232422 -18.86277344 29.15214844 -18.88867188 30.35742188 C-18.94747182 33.2386193 -18.98380532 36.11829983 -19 39 C-21.97 39 -24.94 39 -28 39 C-28 26.46 -28 13.92 -28 1 C-25.03 1 -22.06 1 -19 1 C-18.67 2.32 -18.34 3.64 -18 5 C-17.2575 4.175 -16.515 3.35 -15.75 2.5 C-11.15815383 -1.32653848 -5.65037582 -0.98939549 0 0 Z " fill="#2C357C" transform="translate(673,553)"/>
<path d="M0 0 C2.62682268 1.01116187 4.25920169 1.98664158 5.7421875 4.40625 C5.46508035 7.45442865 3.81667801 8.54948532 1.5546875 10.46875 C0.5440625 9.97375 -0.4665625 9.47875 -1.5078125 8.96875 C-5.22519438 7.35282686 -8.38487907 7.22015203 -12.4453125 7.46875 C-12.7753125 9.11875 -13.1053125 10.76875 -13.4453125 12.46875 C-11.65673828 13.04882812 -11.65673828 13.04882812 -9.83203125 13.640625 C-8.26538982 14.16596584 -6.69899627 14.69204632 -5.1328125 15.21875 C-4.34712891 15.47140625 -3.56144531 15.7240625 -2.75195312 15.984375 C0.53936025 17.10482211 3.01321774 17.95882217 5.56640625 20.36328125 C7.41944499 24.31105944 7.29724267 28.22655983 6.5546875 32.46875 C4.00281566 35.87124579 1.46577011 37.88503697 -2.4453125 39.46875 C-9.41812009 40.26195298 -15.7181872 40.10094609 -21.95703125 36.734375 C-23.77027311 35.19240554 -24.51922074 33.6402755 -25.4453125 31.46875 C-24.4553125 30.14875 -23.4653125 28.82875 -22.4453125 27.46875 C-20.30751522 27.92684942 -18.58878272 28.38420505 -16.6953125 29.5 C-13.75429545 30.76627123 -11.38389725 30.66306706 -8.1953125 30.59375 C-6.57882812 30.56667969 -6.57882812 30.56667969 -4.9296875 30.5390625 C-4.10984375 30.51585937 -3.29 30.49265625 -2.4453125 30.46875 C-2.9403125 27.99375 -2.9403125 27.99375 -3.4453125 25.46875 C-4.38632812 25.23800781 -5.32734375 25.00726562 -6.296875 24.76953125 C-19.72438227 21.25280316 -19.72438227 21.25280316 -23.4453125 16.46875 C-24.61723116 13.34167056 -24.99234405 10.77349727 -24.4453125 7.46875 C-19.00291121 -1.88592058 -10.02314793 -2.17755291 0 0 Z " fill="#343C82" transform="translate(461.4453125,553.53125)"/>
<path d="M0 0 C13.86 0 27.72 0 42 0 C42 2.64 42 5.28 42 8 C36.72 8 31.44 8 26 8 C26 22.19 26 36.38 26 51 C23.03 51 20.06 51 17 51 C17 36.81 17 22.62 17 8 C11.39 8 5.78 8 0 8 C0 5.36 0 2.72 0 0 Z " fill="#29347E" transform="translate(351,541)"/>
<path d="M0 0 C2.64 0 5.28 0 8 0 C8.07434992 5.72913803 8.12869672 11.45799301 8.16479492 17.1875 C8.17984899 19.13514094 8.2002968 21.08274816 8.22631836 23.03027344 C8.26285053 25.83537128 8.27976033 28.64001954 8.29296875 31.4453125 C8.30845261 32.31116974 8.32393646 33.17702698 8.33988953 34.06912231 C8.34129106 39.14347715 7.83173544 42.61153828 5 47 C-1.34766027 53.07167504 -6.38820106 54.4552609 -14.98046875 54.328125 C-20.21380784 53.75943097 -24.24521137 51.75478863 -28 48 C-27.61121812 44.98694043 -26.73543126 43.60314689 -25 41 C-20.23966942 42.85123967 -20.23966942 42.85123967 -18.1875 44.125 C-14.80271349 45.4789146 -11.5530666 45.54282962 -8 45 C-4.91182268 43.74612994 -4.91182268 43.74612994 -3 41 C-2.30804567 37.99980996 -2.07223982 35.07347615 -2 32 C-2.44988281 32.50144531 -2.89976562 33.00289062 -3.36328125 33.51953125 C-3.90339844 34.00808594 -4.44351563 34.49664063 -5 35 C-7.1875 34.6875 -7.1875 34.6875 -9 34 C-7.515 33.505 -7.515 33.505 -6 33 C-5.67 32.01 -5.34 31.02 -5 30 C-4.34 30 -3.68 30 -3 30 C-1.77496768 21.57790283 -1.22656324 14.14697049 -4 6 C-3.01 6.33 -2.02 6.66 -1 7 C-0.67 4.69 -0.34 2.38 0 0 Z " fill="#30387E" transform="translate(761,554)"/>
<path d="M0 0 C3.3 0 6.6 0 10 0 C12.97 8.25 15.94 16.5 19 25 C20.84175969 22.23736046 21.83508872 19.99241374 22.9453125 16.89453125 C23.29980469 15.91162109 23.65429688 14.92871094 24.01953125 13.91601562 C24.38433594 12.89185547 24.74914062 11.86769531 25.125 10.8125 C25.49753906 9.77673828 25.87007813 8.74097656 26.25390625 7.67382812 C27.17288515 5.11718169 28.08691631 2.55875778 29 0 C32.3 0 35.6 0 39 0 C36.5814588 8.56807427 33.50392078 16.82464561 30.3125 25.125 C29.79589779 26.47643786 29.27961945 27.82799958 28.76367188 29.1796875 C27.51283904 32.45455893 26.257653 35.7277407 25 39 C21.37 39 17.74 39 14 39 C11.99971163 33.93050017 10.00606429 28.85845897 8.01855469 23.78393555 C7.34134387 22.05763232 6.66231651 20.33204056 5.98144531 18.60717773 C5.00368665 16.12928644 4.03246668 13.64891881 3.0625 11.16796875 C2.75626709 10.39599655 2.45003418 9.62402435 2.13452148 8.82865906 C0.93736558 5.75122596 0 3.33266952 0 0 Z " fill="#323A82" transform="translate(311,553)"/>
<path d="M0 0 C3.3 0 6.6 0 10 0 C10.33 6.27 10.66 12.54 11 19 C11.99 18.01 12.98 17.02 14 16 C16.1875 16.3125 16.1875 16.3125 18 17 C17.236875 17.845625 16.47375 18.69125 15.6875 19.5625 C10.67111987 25.6619622 9.4031344 31.30857289 10 39 C10.29692012 41.33824592 10.62020847 43.67377689 11 46 C11 46.66 11 47.32 11 48 C10.34 48 9.68 48 9 48 C9 49.98 9 51.96 9 54 C6.03 54 3.06 54 0 54 C0 36.18 0 18.36 0 0 Z " fill="#303A81" transform="translate(226,538)"/>
<path d="M0 0 C2.97 0 5.94 0 9 0 C9.33 6.93 9.66 13.86 10 21 C11.32 20.67 12.64 20.34 14 20 C13.5155542 20.68860107 13.0311084 21.37720215 12.53198242 22.08666992 C10.73785329 25.49851741 10.57590106 27.77553344 10.48828125 31.61328125 C10.45283203 32.86044922 10.41738281 34.10761719 10.38085938 35.39257812 C10.34702148 37.33293945 10.34702148 37.33293945 10.3125 39.3125 C10.27833984 40.62541016 10.24417969 41.93832031 10.20898438 43.29101562 C10.12660728 46.52725851 10.05741984 49.76323385 10 53 C6.7 53 3.4 53 0 53 C0 35.51 0 18.02 0 0 Z " fill="#30397E" transform="translate(180,539)"/>
<path d="M0 0 C3.3 0 6.6 0 10 0 C10.33 1.65 10.66 3.3 11 5 C11.680625 4.175 12.36125 3.35 13.0625 2.5 C16 0 16 0 19.8125 -0.3125 C20.864375 -0.209375 21.91625 -0.10625 23 0 C23 2.97 23 5.94 23 9 C20.75390625 9.390625 18.5078125 9.78125 16.26171875 10.171875 C13.34226812 11.24082756 12.59987388 12.35301765 11 15 C10.49967042 17.69964156 10.49967042 17.69964156 10.48828125 20.640625 C10.45283203 21.71054687 10.41738281 22.78046875 10.38085938 23.8828125 C10.34702148 25.54957031 10.34702148 25.54957031 10.3125 27.25 C10.27833984 28.37664063 10.24417969 29.50328125 10.20898438 30.6640625 C10.12656986 33.44260901 10.05739702 36.22084252 10 39 C6.7 39 3.4 39 0 39 C0 26.13 0 13.26 0 0 Z " fill="#373C81" transform="translate(823,553)"/>
<path d="M0 0 C0.33 0 0.66 0 1 0 C1.36923077 4.55384615 1.36923077 4.55384615 -0.5 6.8125 C-0.995 7.204375 -1.49 7.59625 -2 8 C-1.34 8.33 -0.68 8.66 0 9 C0.31563182 14.26053037 -0.33409063 17.44573816 -3 22 C-2.01 22.33 -1.02 22.66 0 23 C-4.65869774 26.90323324 -7.73721755 28.35753075 -13.93359375 28.2890625 C-17.3150794 27.81603804 -19.42666084 26.1444493 -22 24 C-24.8288298 19.7567553 -24.65268001 15.98265471 -24 11 C-21.88879089 7.38078438 -19.89722824 5.44864076 -16 4 C-13.21175242 3.86002773 -10.53172884 3.8111087 -7.75 3.875 C-7.00492188 3.88402344 -6.25984375 3.89304687 -5.4921875 3.90234375 C-3.66131941 3.92581642 -1.83061762 3.96168475 0 4 C0 2.68 0 1.36 0 0 Z " fill="#343E85" transform="translate(624,565)"/>
<path d="M0 0 C0.33 1.32 0.66 2.64 1 4 C-0.32 4.33 -1.64 4.66 -3 5 C-3 5.66 -3 6.32 -3 7 C-2.01 7.33 -1.02 7.66 0 8 C0.31941955 13.32365924 -0.46376577 16.35023724 -3 21 C-3 21.99 -3 22.98 -3 24 C-5.78934275 26.71239536 -7.96174929 27.47153738 -11.8125 27.5625 C-16.73607022 27.43139902 -19.21361652 25.9493772 -22.72265625 22.60546875 C-25.53714778 19.06798857 -25.43967576 15.32347828 -25 11 C-22.87425021 7.25868037 -20.06732851 4.45745938 -16 3 C-13.21175242 2.86002773 -10.53172884 2.8111087 -7.75 2.875 C-7.00492187 2.88402344 -6.25984375 2.89304687 -5.4921875 2.90234375 C-3.66131941 2.92581642 -1.83061762 2.96168475 0 3 C0 2.01 0 1.02 0 0 Z " fill="#373F84" transform="translate(295,566)"/>
<path d="M0 0 C0.77601563 0.00644531 1.55203125 0.01289062 2.3515625 0.01953125 C4.375 0.1875 4.375 0.1875 6.375 1.1875 C6.375 1.8475 6.375 2.5075 6.375 3.1875 C5.385 3.6825 5.385 3.6825 4.375 4.1875 C6.685 4.5175 8.995 4.8475 11.375 5.1875 C11.5 8.5625 11.5 8.5625 11.375 12.1875 C10.715 12.8475 10.055 13.5075 9.375 14.1875 C9.375 15.1775 9.375 16.1675 9.375 17.1875 C10.365 16.8575 11.355 16.5275 12.375 16.1875 C10.97915208 19.56079915 9.45134389 21.22982662 6.375 23.1875 C2.30062242 24.54562586 -1.36900091 24.84115174 -5.625 24.1875 C-8.77773695 22.52466405 -10.89290517 20.18581113 -13 17.3125 C-13.96223181 14.04091185 -14.03500392 11.58467535 -13.625 8.1875 C-10.45459003 2.64244033 -6.33862889 -0.11659685 0 0 Z " fill="#343D84" transform="translate(407.625,568.8125)"/>
<path d="M0 0 C4.13695124 2.68342783 5.82311206 5.1480737 7.51953125 9.609375 C8 12 8 12 8 20 C-1.24 20 -10.48 20 -20 20 C-19.01 19.34 -18.02 18.68 -17 18 C-16.67 17.01 -16.34 16.02 -16 15 C-17.65 14.67 -19.3 14.34 -21 14 C-20.78466133 10.23157335 -20.00263823 9.00282667 -17.375 6.1875 C-13.96114208 3.57786822 -11.27425888 3.4459294 -7 4 C-4.5625 5 -4.5625 5 -3 6 C-2.67 5.01 -2.34 4.02 -2 3 C-1.34 2.67 -0.68 2.34 0 2 C0 1.34 0 0.68 0 0 Z " fill="#424887" transform="translate(808,556)"/>
<path d="M0 0 C2.66864736 2.09679436 3.55874943 4.218186 4.75 7.375 C5.31077045 12.6088575 4.54925084 15.91693385 1.75 20.375 C-1.91908557 22.82105705 -4.98618769 23.21446402 -9.25 22.375 C-12.41158752 19.81882286 -14.98038953 17.58492185 -15.48828125 13.421875 C-15.66774475 7.86795197 -14.98664814 4.77105663 -11.25 0.375 C-7.69998488 -1.40000756 -3.76437925 -1.0456609 0 0 Z " fill="#F6F7F8" transform="translate(250.25,561.625)"/>
<path d="M0 0 C2.97 0 5.94 0 9 0 C9 12.87 9 25.74 9 39 C6.03 39 3.06 39 0 39 C0 37.35 0 35.7 0 34 C-0.99 33.67 -1.98 33.34 -3 33 C-2.52433594 31.4221875 -2.52433594 31.4221875 -2.0390625 29.8125 C-0.57159648 23.94263592 -0.5405503 18.02189223 -0.375 12 C-0.33632812 10.84371094 -0.29765625 9.68742188 -0.2578125 8.49609375 C-0.16419668 5.6642152 -0.07846325 2.83233206 0 0 Z " fill="#2E387D" transform="translate(160,553)"/>
<path d="M0 0 C3.62805255 0.58307987 5.60874874 1.33210617 8.5 3.5625 C11.19346914 7.60270371 11.05014255 10.81960439 10.5 15.5625 C8.87599816 19.19717079 7.83886956 20.33658696 4.5 22.5625 C-2.61864407 23.2404661 -2.61864407 23.2404661 -5.9375 20.6875 C-9.21520906 16.22981567 -9.21816648 11.96113076 -8.5 6.5625 C-6.70226164 2.45108044 -4.50537442 0.72407803 0 0 Z " fill="#F7F8F9" transform="translate(749.5,560.4375)"/>
<path d="M0 0 C1.051875 -0.01417969 2.10375 -0.02835938 3.1875 -0.04296875 C6 0.1875 6 0.1875 9 2.1875 C9 3.1775 9 4.1675 9 5.1875 C8.32453125 5.21328125 7.6490625 5.2390625 6.953125 5.265625 C1.3259577 5.5865601 1.3259577 5.5865601 -3.6875 7.9375 C-5.27119831 10.15267529 -5.27119831 10.15267529 -4.75 12.9375 C-4.5025 13.68 -4.255 14.4225 -4 15.1875 C-1.69 15.8475 0.62 16.5075 3 17.1875 C2.01 17.5175 1.02 17.8475 0 18.1875 C0 19.1775 0 20.1675 0 21.1875 C0.66 21.5175 1.32 21.8475 2 22.1875 C0.35843264 23.82906736 -1.49215801 23.47565992 -3.75 23.5625 C-7.81037168 23.53926468 -8.71640463 23.4074311 -12.0625 20.8125 C-14.70948998 17.22625551 -15.45494715 14.89025929 -15.421875 10.359375 C-14.65661021 6.4196785 -12.01029639 3.71439113 -9 1.1875 C-5.79226388 0.11825463 -3.37015182 0.02065044 0 0 Z " fill="#3B4085" transform="translate(703,568.8125)"/>
<path d="M0 0 C1.98 1.32 3.96 2.64 6 4 C4.25710529 8.03799368 2.22432822 9.79627216 -1.50390625 12.01953125 C-6.16164507 13.84909689 -11.09346536 13.69054932 -16 13 C-16.99 12.34 -17.98 11.68 -19 11 C-19.29296875 8.8359375 -19.29296875 8.8359375 -19.1875 6.375 C-19.16042969 5.55773437 -19.13335938 4.74046875 -19.10546875 3.8984375 C-19.05326172 2.95871094 -19.05326172 2.95871094 -19 2 C-16.83125748 2.50603992 -15.00032373 2.99983813 -13 4 C-7.29008444 4.54903034 -4.50192237 3.51369551 0 0 Z " fill="#343C80" transform="translate(807,580)"/>
<path d="M0 0 C6.61946903 2.61946903 6.61946903 2.61946903 9 5 C9.33 3.68 9.66 2.36 10 1 C12.97 1 15.94 1 19 1 C19 1.33 19 1.66 19 2 C16.36 2 13.72 2 11 2 C11 4.31 11 6.62 11 9 C10.01 9.33 9.02 9.66 8 10 C7.67 10.66 7.34 11.32 7 12 C6.484375 11.67 5.96875 11.34 5.4375 11 C2.03878205 9.60565417 -0.35594448 9.55248441 -4 10 C-6.93973281 12.35418376 -6.93973281 12.35418376 -9 15 C-9.38218767 13.34385343 -9.71395102 11.67542976 -10 10 C-9.67 9.67 -9.34 9.34 -9 9 C-9.66 9 -10.32 9 -11 9 C-11.33 7.02 -11.66 5.04 -12 3 C-7.87221088 -0.00202845 -5.06849828 -0.60134725 0 0 Z " fill="#3C4589" transform="translate(750,552)"/>
<path d="M0 0 C1.29164063 -0.00773438 2.58328125 -0.01546875 3.9140625 -0.0234375 C7.45775515 0.38452712 8.84373353 0.94652608 11.375 3.375 C10.385 3.87 10.385 3.87 9.375 4.375 C8.715 4.045 8.055 3.715 7.375 3.375 C6.715 5.355 6.055 7.335 5.375 9.375 C4.12783203 9.34019531 4.12783203 9.34019531 2.85546875 9.3046875 C1.22544922 9.27761719 1.22544922 9.27761719 -0.4375 9.25 C-1.51644531 9.22679687 -2.59539063 9.20359375 -3.70703125 9.1796875 C-6.81902868 9.14476283 -6.81902868 9.14476283 -9.625 11.375 C-10.615 11.375 -11.605 11.375 -12.625 11.375 C-13.91524129 9.2498967 -14.625 7.82154501 -14.625 5.3125 C-11.8631699 -0.03854581 -5.31765682 -0.03196988 0 0 Z " fill="#3A428B" transform="translate(705.625,552.625)"/>
<path d="M0 0 C0.66 0 1.32 0 2 0 C3.1721449 2.95619219 4.33677476 5.91528789 5.5 8.875 C5.83386719 9.71675781 6.16773438 10.55851563 6.51171875 11.42578125 C6.98544922 12.63427734 6.98544922 12.63427734 7.46875 13.8671875 C7.76201172 14.61081543 8.05527344 15.35444336 8.35742188 16.12060547 C9 18 9 18 9 20 C4.05 20 -0.9 20 -6 20 C-5.1138191 15.56909551 -3.89228006 11.44588981 -2.4375 7.1875 C-2.20353516 6.49462891 -1.96957031 5.80175781 -1.72851562 5.08789062 C-1.15508324 3.39099886 -0.57791831 1.69536922 0 0 Z " fill="#EBEDF2" transform="translate(55,552)"/>
<path d="M0 0 C1.77503906 0.03480469 1.77503906 0.03480469 3.5859375 0.0703125 C5.36871094 0.09738281 5.36871094 0.09738281 7.1875 0.125 C8.10273437 0.14820313 9.01796875 0.17140625 9.9609375 0.1953125 C10.125 3.015625 10.125 3.015625 9.9609375 6.1953125 C7.04194158 9.39230803 5.12618198 10.98556849 0.8359375 11.7578125 C-2.73047961 11.06003524 -4.00795188 10.20135621 -6.0390625 7.1953125 C-5.82276834 2.65313504 -4.80614173 0.308878 0 0 Z " fill="#E8EBF4" transform="translate(703.0390625,574.8046875)"/>
<path d="M0 0 C1.08667969 0.01804687 2.17335938 0.03609375 3.29296875 0.0546875 C4.54013672 0.08949219 4.54013672 0.08949219 5.8125 0.125 C5.9765625 2.9453125 5.9765625 2.9453125 5.8125 6.125 C2.85211936 9.36732166 1.01524408 10.95991748 -3.375 11.5625 C-6.1875 11.125 -6.1875 11.125 -9.1875 9.125 C-9.5625 5.625 -9.5625 5.625 -9.1875 2.125 C-5.66070901 -0.22619399 -4.15870515 -0.08943452 0 0 Z " fill="#EFF1F5" transform="translate(413.1875,574.875)"/>
<path d="M0 0 C1.08667969 0.02707031 2.17335938 0.05414062 3.29296875 0.08203125 C4.54013672 0.13423828 4.54013672 0.13423828 5.8125 0.1875 C6.046875 5.8984375 6.046875 5.8984375 3.9375 8.5 C0.45173783 11.26810525 -1.7445337 11.55019113 -6.1875 11.1875 C-8.0625 10 -8.0625 10 -9.1875 8.1875 C-9.6064057 5.39479532 -9.67547756 3.89347441 -8.05078125 1.54296875 C-5.35650532 -0.41701815 -3.28594724 -0.1059983 0 0 Z " fill="#F7F7F9" transform="translate(618.1875,574.8125)"/>
<path d="M0 0 C1.08667969 0.01804687 2.17335938 0.03609375 3.29296875 0.0546875 C4.54013672 0.08949219 4.54013672 0.08949219 5.8125 0.125 C5.9921875 5.828125 5.9921875 5.828125 4.375 8.5 C0.69075567 10.83635006 -2.92204092 10.83316502 -7.1875 10.125 C-9.1875 8.125 -9.1875 8.125 -9.5 5.125 C-9.396875 4.135 -9.29375 3.145 -9.1875 2.125 C-5.66070901 -0.22619399 -4.15870515 -0.08943452 0 0 Z " fill="#F3F5F8" transform="translate(289.1875,574.875)"/>
<path d="M0 0 C2.9375 2.25 2.9375 2.25 5 5 C5 6.32 5 7.64 5 9 C-0.94 9 -6.88 9 -13 9 C-12 4 -12 4 -9.875 1.6875 C-6.20197931 -0.46840345 -4.19688661 -0.67449963 0 0 Z " fill="#F5F5F9" transform="translate(801,560)"/>
<path d="M0 0 C0.185625 0.78375 0.37125 1.5675 0.5625 2.375 C1.83961627 5.39376342 1.83961627 5.39376342 5.625 6.3125 C6.73875 6.539375 7.8525 6.76625 9 7 C8.01 7.33 7.02 7.66 6 8 C6 8.99 6 9.98 6 11 C6.66 11.33 7.32 11.66 8 12 C6.35843264 13.64156736 4.50784199 13.28815992 2.25 13.375 C-1.60974944 13.32523246 -2.79393798 13.13600093 -6.125 10.9375 C-8.40933517 7.35870823 -8.40877691 5.16952449 -8 1 C-7.67 2.32 -7.34 3.64 -7 5 C-5.824375 3.7625 -5.824375 3.7625 -4.625 2.5 C-2 0 -2 0 0 0 Z " fill="#2A3479" transform="translate(697,579)"/>
<path d="M0 0 C0.9590625 -0.00773438 1.918125 -0.01546875 2.90625 -0.0234375 C5.5 0.375 5.5 0.375 7.34375 1.5859375 C8.5 3.375 8.5 3.375 8.5 8.375 C3.22 8.375 -2.06 8.375 -7.5 8.375 C-8.5 6.375 -8.5 6.375 -8.5 3.375 C-6.16078632 0.00842896 -3.93999119 -0.03177412 0 0 Z " fill="#F3F4F8" transform="translate(286.5,560.625)"/>
<path d="M0 0 C1.77007714 -0.08114106 3.54122098 -0.13925505 5.3125 -0.1875 C6.29863281 -0.22230469 7.28476562 -0.25710938 8.30078125 -0.29296875 C11 0 11 0 12.85546875 1.19921875 C14 3 14 3 14 8 C9.05 8 4.1 8 -1 8 C-0.67 5.36 -0.34 2.72 0 0 Z " fill="#EEF1F8" transform="translate(610,561)"/>
<path d="M0 0 C3.3 0 6.6 0 10 0 C10.33 6.27 10.66 12.54 11 19 C12.65 17.68 14.3 16.36 16 15 C18.8125 14.75 18.8125 14.75 21 15 C20.09232898 16.44319692 19.17343894 17.87934106 18.25 19.3125 C17.73953125 20.11300781 17.2290625 20.91351562 16.703125 21.73828125 C14.99722239 24.00368861 13.34191855 25.42684167 11 27 C11 25.66666667 11 24.33333333 11 23 C10.34 22.67 9.68 22.34 9 22 C9 15.07 9 8.14 9 1 C6.03 1 3.06 1 0 1 C0 0.67 0 0.34 0 0 Z " fill="#4A5293" transform="translate(180,538)"/>
<path d="M0 0 C0.33 0 0.66 0 1 0 C1.36923077 4.55384615 1.36923077 4.55384615 -0.5 6.8125 C-0.995 7.204375 -1.49 7.59625 -2 8 C-1.34 8.66 -0.68 9.32 0 10 C-1.24716797 10.07347656 -1.24716797 10.07347656 -2.51953125 10.1484375 C-3.60621094 10.22320313 -4.69289063 10.29796875 -5.8125 10.375 C-6.89144531 10.44460938 -7.97039063 10.51421875 -9.08203125 10.5859375 C-12.18626186 10.81195733 -12.18626186 10.81195733 -15 13 C-15.125 10.625 -15.125 10.625 -15 8 C-14.34 7.34 -13.68 6.68 -13 6 C-13.99 5.34 -14.98 4.68 -16 4 C-10.72 4 -5.44 4 0 4 C0 2.68 0 1.36 0 0 Z " fill="#3A4188" transform="translate(624,565)"/>
<path d="M0 0 C1.19109375 -0.00386719 1.19109375 -0.00386719 2.40625 -0.0078125 C4.5 0.125 4.5 0.125 6.5 1.125 C6.5 1.785 6.5 2.445 6.5 3.125 C5.51 3.62 5.51 3.62 4.5 4.125 C6.81 4.455 9.12 4.785 11.5 5.125 C11.5 5.455 11.5 5.785 11.5 6.125 C10.65695312 6.18558594 9.81390625 6.24617187 8.9453125 6.30859375 C7.84960938 6.39238281 6.75390625 6.47617187 5.625 6.5625 C3.98917969 6.68431641 3.98917969 6.68431641 2.3203125 6.80859375 C-0.44728971 6.95501703 -0.44728971 6.95501703 -2.5 8.125 C-3.15555119 10.65233235 -3.15555119 10.65233235 -3.5 13.125 C-5.5 9.375 -5.5 9.375 -5.5 7.125 C-4.84 6.795 -4.18 6.465 -3.5 6.125 C-3.5 5.135 -3.5 4.145 -3.5 3.125 C-4.098125 3.455 -4.69625 3.785 -5.3125 4.125 C-7.5 5.125 -7.5 5.125 -10.5 5.125 C-6.89667599 1.40156519 -5.1981635 -0.01687715 0 0 Z " fill="#44498C" transform="translate(407.5,568.875)"/>
<path d="M0 0 C0.33 1.32 0.66 2.64 1 4 C-0.32 4.33 -1.64 4.66 -3 5 C-3 5.66 -3 6.32 -3 7 C-2.01 7.66 -1.02 8.32 0 9 C-1.22976563 9.09087891 -1.22976563 9.09087891 -2.484375 9.18359375 C-4.10085938 9.30927734 -4.10085938 9.30927734 -5.75 9.4375 C-6.81734375 9.51871094 -7.8846875 9.59992187 -8.984375 9.68359375 C-11.43679962 9.94090773 -13.63921291 10.31812218 -16 11 C-15.01 9.02 -14.02 7.04 -13 5 C-13.99 4.34 -14.98 3.68 -16 3 C-10.72 3 -5.44 3 0 3 C0 2.01 0 1.02 0 0 Z " fill="#41498D" transform="translate(295,566)"/>
<path d="M0 0 C1.32 0 2.64 0 4 0 C8 5.11111111 8 5.11111111 8 8 C4.37 8 0.74 8 -3 8 C-3.33 6.68 -3.66 5.36 -4 4 C-2.68 3.34 -1.36 2.68 0 2 C0 1.34 0 0.68 0 0 Z " fill="#29357A" transform="translate(504,584)"/>
<path d="M0 0 C1.258125 -0.04125 2.51625 -0.0825 3.8125 -0.125 C4.52019531 -0.14820313 5.22789062 -0.17140625 5.95703125 -0.1953125 C8 0 8 0 11 2 C11 2.99 11 3.98 11 5 C10.32453125 5.03738281 9.6490625 5.07476563 8.953125 5.11328125 C8.06109375 5.17902344 7.1690625 5.24476563 6.25 5.3125 C4.92742188 5.39951172 4.92742188 5.39951172 3.578125 5.48828125 C0.9130256 5.82398141 0.9130256 5.82398141 -1.140625 7.60546875 C-1.75421875 8.06566406 -2.3678125 8.52585937 -3 9 C-3.99 8.67 -4.98 8.34 -6 8 C-4.1875 6 -4.1875 6 -2 4 C-1.01 4 -0.02 4 1 4 C0.67 2.68 0.34 1.36 0 0 Z " fill="#2B3277" transform="translate(701,569)"/>
<path d="M0 0 C0.7734375 0.61875 0.7734375 0.61875 1.5625 1.25 C0.03505894 5.52683498 -2.43825302 7.25037651 -6.4375 9.25 C-9.8004864 9.57124049 -13.07110448 9.4895064 -16.4375 9.25 C-16.4375 8.92 -16.4375 8.59 -16.4375 8.25 C-13.7975 7.92 -11.1575 7.59 -8.4375 7.25 C-8.7675 5.93 -9.0975 4.61 -9.4375 3.25 C-3.0375 -0.93461538 -3.0375 -0.93461538 0 0 Z " fill="#434F92" transform="translate(712.4375,583.75)"/>
<path d="M0 0 C0.66 0.33 1.32 0.66 2 1 C-2.66138077 6.2919057 -7.39898801 11.50296982 -12.3125 16.5625 C-13.11300781 17.38878906 -13.91351563 18.21507813 -14.73828125 19.06640625 C-17.01815841 21.01552403 -18.15582144 21.419807 -21 22 C-16.61557474 16.74825074 -11.99157907 11.86777527 -7.125 7.0625 C-6.43664062 6.37865234 -5.74828125 5.69480469 -5.0390625 4.99023438 C-3.36166489 3.32448536 -1.68196209 1.6611378 0 0 Z " fill="#3DB2E3" transform="translate(263,108)"/>
<path d="M0 0 C-0.7115625 0.61875 -0.7115625 0.61875 -1.4375 1.25 C-3.16266518 3.182185 -3.56584875 4.48192275 -4 7 C-4.66 7 -5.32 7 -6 7 C-6 7.99 -6 8.98 -6 10 C-6.99 10 -7.98 10 -9 10 C-10.33454536 7.8019253 -11.02787435 6.47386397 -10.875 3.875 C-10 2 -10 2 -8.3125 0.75 C-5.45766881 -0.1758912 -2.98225393 -0.135557 0 0 Z " fill="#393F83" transform="translate(702,554)"/>
<path d="M0 0 C1.65 0 3.3 0 5 0 C5.66 1.32 6.32 2.64 7 4 C4.525 5.485 4.525 5.485 2 7 C2.33 8.32 2.66 9.64 3 11 C2.01 11 1.02 11 0 11 C-1.56633048 8.51229865 -2.04100928 7.34447796 -1.6875 4.375 C-1 2 -1 2 0 0 Z " fill="#2C337C" transform="translate(713,556)"/>
<path d="M0 0 C1.485 0.99 1.485 0.99 3 2 C4.9896995 2.39013716 6.99019869 2.73202649 9 3 C9 4.32 9 5.64 9 7 C7.88625 7.28875 6.7725 7.5775 5.625 7.875 C1.99708908 8.69241329 1.99708908 8.69241329 0 11 C0 7.37 0 3.74 0 0 Z " fill="#252E70" transform="translate(368,550)"/>
<path d="M0 0 C0.33 0 0.66 0 1 0 C1.02505615 0.63091553 1.0501123 1.26183105 1.07592773 1.91186523 C1.19154137 4.75396825 1.31442316 7.59571083 1.4375 10.4375 C1.47681641 11.43072266 1.51613281 12.42394531 1.55664062 13.44726562 C1.59853516 14.39150391 1.64042969 15.33574219 1.68359375 16.30859375 C1.72025146 17.18314209 1.75690918 18.05769043 1.79467773 18.95874023 C1.78181066 20.9927402 1.78181066 20.9927402 3 22 C3.14115161 24.67058851 3.04247107 27.32432238 3 30 C0.36 30 -2.28 30 -5 30 C-5 29.67 -5 29.34 -5 29 C-3.35 28.67 -1.7 28.34 0 28 C0 18.76 0 9.52 0 0 Z " fill="#7277A4" transform="translate(722,563)"/>
<path d="M0 0 C1.32 0.33 2.64 0.66 4 1 C-1.29411765 7.76470588 -1.29411765 7.76470588 -5 9 C-5.99 9 -6.98 9 -8 9 C-7.25 7.0625 -7.25 7.0625 -6 5 C-4.66666667 4.66666667 -3.33333333 4.33333333 -2 4 C-0.71563266 2.0162233 -0.71563266 2.0162233 0 0 Z " fill="#2E3C89" transform="translate(763,598)"/>
<path d="M0 0 C0.33 1.32 0.66 2.64 1 4 C-0.65 5.32 -2.3 6.64 -4 8 C-3.34 8.66 -2.68 9.32 -2 10 C-3.65 10.33 -5.3 10.66 -7 11 C-7.33 10.01 -7.66 9.02 -8 8 C-7.34 7.01 -6.68 6.02 -6 5 C-6.99 4.34 -7.98 3.68 -9 3 C-8.43410156 2.86722656 -7.86820313 2.73445312 -7.28515625 2.59765625 C-6.18494141 2.33275391 -6.18494141 2.33275391 -5.0625 2.0625 C-4.33160156 1.88847656 -3.60070312 1.71445312 -2.84765625 1.53515625 C-1.00030102 1.16112431 -1.00030102 1.16112431 0 0 Z " fill="#454C91" transform="translate(757,580)"/>
<path d="M0 0 C2 2 2 2 2.1953125 3.9453125 C2.13020833 5.96354167 2.06510417 7.98177083 2 10 C3.65 10 5.3 10 7 10 C7 8.35 7 6.7 7 5 C7.33 5 7.66 5 8 5 C8 7.31 8 9.62 8 12 C5.36 12 2.72 12 0 12 C0 8.04 0 4.08 0 0 Z " fill="#212F76" transform="translate(582,580)"/>
<path d="M0 0 C1.98 1.32 3.96 2.64 6 4 C4.63016497 7.16115776 4.0109362 7.9927092 1 10 C0.9175 9.21625 0.835 8.4325 0.75 7.625 C0.27193661 4.85250896 0.27193661 4.85250896 -2.0625 3.6875 C-2.701875 3.460625 -3.34125 3.23375 -4 3 C-2.68 2.01 -1.36 1.02 0 0 Z " fill="#3A4386" transform="translate(807,580)"/>
<path d="M0 0 C-1.75 3.875 -1.75 3.875 -4 5 C-5.13350534 7.01669827 -5.13350534 7.01669827 -6 9 C-6.99 9 -7.98 9 -9 9 C-8.690625 8.2575 -8.38125 7.515 -8.0625 6.75 C-6.96814292 4.12132038 -6.96814292 4.12132038 -6.5 1.75 C-6.335 1.1725 -6.17 0.595 -6 0 C-3.50907189 -1.24546405 -2.58919267 -0.7767578 0 0 Z " fill="#343B86" transform="translate(665,554)"/>
<path d="M0 0 C1.32 0.66 2.64 1.32 4 2 C3.43628586 5.26954202 2.50037734 6.82575883 0 9 C-1.32 8.01 -2.64 7.02 -4 6 C-3.01 5.67 -2.02 5.34 -1 5 C-0.67 3.35 -0.34 1.7 0 0 Z " fill="#444B91" transform="translate(463,555)"/>
<path d="M0 0 C-1.485 2.475 -1.485 2.475 -3 5 C-3.66 4.67 -4.32 4.34 -5 4 C-5.625 1.9375 -5.625 1.9375 -6 0 C-3.50907189 -1.24546405 -2.58919267 -0.7767578 0 0 Z M-2.75 5.875 C-1.88375 6.431875 -1.88375 6.431875 -1 7 C-3.64 7.99 -6.28 8.98 -9 10 C-9 9.01 -9 8.02 -9 7 C-5.55384615 4.78461538 -5.55384615 4.78461538 -2.75 5.875 Z " fill="#384089" transform="translate(109,554)"/>
<path d="M0 0 C0.99 0.33 1.98 0.66 3 1 C-0.33333333 4.33333333 -3.66666667 7.66666667 -7 11 C-7.99 10.67 -8.98 10.34 -10 10 C-6.7 6.7 -3.4 3.4 0 0 Z " fill="#43B1E4" transform="translate(599,104)"/>
<path d="M0 0 C0.99 0.33 1.98 0.66 3 1 C1.52307692 5.67692308 1.52307692 5.67692308 -1.125 7.3125 C-2.053125 7.6528125 -2.053125 7.6528125 -3 8 C-3.33 7.01 -3.66 6.02 -4 5 C-2.0625 2.3125 -2.0625 2.3125 0 0 Z " fill="#2A3078" transform="translate(737,556)"/>
<path d="M0 0 C2.00720923 0.28674418 4.0085944 0.61866701 6 1 C5.01 1.33 4.02 1.66 3 2 C3 2.99 3 3.98 3 5 C3.66 5.33 4.32 5.66 5 6 C3.35 6.33 1.7 6.66 0 7 C-0.38133299 5.0085944 -0.71325582 3.00720923 -1 1 C-0.67 0.67 -0.34 0.34 0 0 Z " fill="#2D3C81" transform="translate(700,585)"/>
<path d="M0 0 C0.77772405 2.33317216 1.42415568 4.61435923 2 7 C0.35 8.32 -1.3 9.64 -3 11 C-3.33 10.01 -3.66 9.02 -4 8 C-3.67 7.34 -3.34 6.68 -3 6 C-2.34 6 -1.68 6 -1 6 C-1.309375 5.071875 -1.309375 5.071875 -1.625 4.125 C-1.810625 3.073125 -1.810625 3.073125 -2 2 C-1.34 1.34 -0.68 0.68 0 0 Z " fill="#404F92" transform="translate(157,581)"/>
<path d="M0 0 C0.33 0.66 0.66 1.32 1 2 C1.66 2 2.32 2 3 2 C3.1875 5.375 3.1875 5.375 3 9 C2.01 9.66 1.02 10.32 0 11 C0 7.37 0 3.74 0 0 Z " fill="#252D71" transform="translate(760,567)"/>
<path d="M0 0 C2.0625 0.4375 2.0625 0.4375 4 1 C2.76302083 2.46484375 1.52604167 3.9296875 0.2890625 5.39453125 C-0.89201099 6.8655046 -1.95358529 8.43037794 -3 10 C-3 6.28781401 -2.76691023 2.76691023 0 0 Z " fill="#252F79" transform="translate(240,554)"/>
<path d="M0 0 C0.33 0.66 0.66 1.32 1 2 C5.29 2 9.58 2 14 2 C14 2.33 14 2.66 14 3 C13.16855469 3.04898438 12.33710937 3.09796875 11.48046875 3.1484375 C10.39378906 3.22320313 9.30710937 3.29796875 8.1875 3.375 C7.10855469 3.44460938 6.02960937 3.51421875 4.91796875 3.5859375 C1.81373814 3.81195733 1.81373814 3.81195733 -1 6 C-1.042721 4.33388095 -1.04063832 2.66617115 -1 1 C-0.67 0.67 -0.34 0.34 0 0 Z " fill="#4D5492" transform="translate(610,572)"/>
<path d="M0 0 C1.65 0 3.3 0 5 0 C5.33 0.66 5.66 1.32 6 2 C5.01 2.495 5.01 2.495 4 3 C4.99 3.66 5.98 4.32 7 5 C3.7 5 0.4 5 -3 5 C0 3 0 3 2 3 C2 2.34 2 1.68 2 1 C1.34 0.67 0.68 0.34 0 0 Z " fill="#2A2F79" transform="translate(412,569)"/>
<path d="M0 0 C0.66 0.33 1.32 0.66 2 1 C0.70700306 3.88437779 -0.65941363 5.87219421 -3 8 C-3.75 6.25 -3.75 6.25 -4 4 C-2.0625 1.75 -2.0625 1.75 0 0 Z " fill="#282F79" transform="translate(785,556)"/>
<path d="M0 0 C1.32 0.33 2.64 0.66 4 1 C3.01 1.66 2.02 2.32 1 3 C0.27617533 5.05925139 0.27617533 5.05925139 0 7 C-0.66 7 -1.32 7 -2 7 C-2 7.99 -2 8.98 -2 10 C-2.66 10 -3.32 10 -4 10 C-3.43454163 6.04179141 -2.19097652 3.3340947 0 0 Z " fill="#2D327F" transform="translate(698,554)"/>
<path d="M0 0 C0.66 0.66 1.32 1.32 2 2 C0.35 3.65 -1.3 5.3 -3 7 C-3.66 6.67 -4.32 6.34 -5 6 C-5 5.01 -5 4.02 -5 3 C-2.5 1.3125 -2.5 1.3125 0 0 Z " fill="#EBEBEF" transform="translate(735,555)"/>
<path d="M0 0 C1 3 1 3 -0.3125 6.625 C-2 10 -2 10 -4 11 C-3.39301257 6.87248551 -1.96189209 3.6678852 0 0 Z " fill="#354181" transform="translate(46,553)"/>
<path d="M0 0 C2.97 0 5.94 0 9 0 C9 1.98 9 3.96 9 6 C8.67 6 8.34 6 8 6 C8 4.35 8 2.7 8 1 C6.8553125 1.495 6.8553125 1.495 5.6875 2 C3 3 3 3 0 3 C0 2.01 0 1.02 0 0 Z " fill="#242D77" transform="translate(134,554)"/>
<path d="M0 0 C1.93719378 -0.05406122 3.87481921 -0.09282025 5.8125 -0.125 C6.89144531 -0.14820313 7.97039063 -0.17140625 9.08203125 -0.1953125 C12 0 12 0 15 2 C14.67 2.99 14.34 3.98 14 5 C13.17242188 4.27876953 13.17242188 4.27876953 12.328125 3.54296875 C9.63856507 1.76045839 7.94178582 1.52248591 4.75 1.3125 C3.85796875 1.24675781 2.9659375 1.18101562 2.046875 1.11328125 C1.03367187 1.05720703 1.03367187 1.05720703 0 1 C0 0.67 0 0.34 0 0 Z " fill="#CDD0DA" transform="translate(663,552)"/>
<path d="M0 0 C0 1.98 0 3.96 0 6 C-1.98 6 -3.96 6 -6 6 C-5.34 5.67 -4.68 5.34 -4 5 C-3.835 4.34 -3.67 3.68 -3.5 3 C-3.335 2.34 -3.17 1.68 -3 1 C-1 0 -1 0 0 0 Z " fill="#2E3F88" transform="translate(654,586)"/>
<path d="M0 0 C0.99 0.66 1.98 1.32 3 2 C3 2.99 3 3.98 3 5 C2.34 5 1.68 5 1 5 C0.67 5.66 0.34 6.32 0 7 C-2 4 -2 4 -2 1 C-1.34 0.67 -0.68 0.34 0 0 Z " fill="#343E82" transform="translate(604,556)"/>
<path d="M0 0 C0.99 0.33 1.98 0.66 3 1 C3 1.66 3 2.32 3 3 C3.33 3.66 3.66 4.32 4 5 C2.02 5 0.04 5 -2 5 C-1.125 1.125 -1.125 1.125 0 0 Z " fill="#283278" transform="translate(623,582)"/>
<path d="M0 0 C3.3 0.99 6.6 1.98 10 3 C10 3.33 10 3.66 10 4 C2.49230769 4.36923077 2.49230769 4.36923077 0 2.5 C-0.33 2.005 -0.66 1.51 -1 1 C-0.67 0.67 -0.34 0.34 0 0 Z " fill="#4E5998" transform="translate(606,589)"/>
<path d="M0 0 C1.0625 1.875 1.0625 1.875 2 4 C1.67 4.66 1.34 5.32 1 6 C0.34 6 -0.32 6 -1 6 C-1.33 7.32 -1.66 8.64 -2 10 C-2.25 3.375 -2.25 3.375 0 0 Z " fill="#576195" transform="translate(272,574)"/>
<path d="M0 0 C1.98 0 3.96 0 6 0 C5.01 1.98 4.02 3.96 3 6 C2.34 6 1.68 6 1 6 C0.67 4.02 0.34 2.04 0 0 Z " fill="#31347B" transform="translate(606,570)"/>
<path d="M0 0 C0.33 0.66 0.66 1.32 1 2 C3.02463255 2.65213292 3.02463255 2.65213292 5 3 C4.34 3.66 3.68 4.32 3 5 C2.67 4.67 2.34 4.34 2 4 C0.48530552 3.76807135 -1.03754562 3.58784762 -2.5625 3.4375 C-3.38878906 3.35371094 -4.21507812 3.26992188 -5.06640625 3.18359375 C-5.70449219 3.12300781 -6.34257812 3.06242188 -7 3 C-7 2.67 -7 2.34 -7 2 C-4.69 2 -2.38 2 0 2 C0 1.34 0 0.68 0 0 Z " fill="#5C619F" transform="translate(290,558)"/>
<path d="M0 0 C0.66 0.66 1.32 1.32 2 2 C0.02 2.99 0.02 2.99 -2 4 C-1.34 2.68 -0.68 1.36 0 0 Z M-3 4 C-3 4.99 -3 5.98 -3 7 C-4.98 7.99 -4.98 7.99 -7 9 C-5.68 7.35 -4.36 5.7 -3 4 Z " fill="#47B5E4" transform="translate(546,163)"/>
</svg>
